<svg xmlns="http://www.w3.org/2000/svg" xmlns:xlink="http://www.w3.org/1999/xlink" width="32" height="32" viewBox="0 0 32 32">
  <defs>
    <clipPath id="clip-Favicon">
      <rect width="32" height="32"/>
    </clipPath>
  </defs>
  <g id="Favicon" clip-path="url(#clip-Favicon)">
    <path id="Path_470" data-name="Path 470" d="M25.948,64.675a5.308,5.308,0,0,0-10.513-.033,5.354,5.354,0,0,0-4.765,5.314A5.283,5.283,0,0,0,14.4,75.139a3.54,3.54,0,0,0,1.235.165l9.718-.034a5.314,5.314,0,0,0,.592-10.6Zm-.592,9.306a3.988,3.988,0,0,1-3.768-2.625l1.109-.578s-2.045-.809-2.471-.587-.936,2.361-.936,2.361l1.148-.6a5.279,5.279,0,0,0,1.4,1.992h-6.2a2.362,2.362,0,0,1-.751-.076l-.078-.027a3.937,3.937,0,0,1-2.783-3.888,3.987,3.987,0,0,1,7.225-2.331l-1.133.625s2.064.76,2.484.528.88-2.383.88-2.383l-1.04.573a5.348,5.348,0,0,0-3.707-2.311,4.02,4.02,0,0,1,7.971.644l.015.629h.655a4.025,4.025,0,0,1-.02,8.049Z" transform="translate(-4.669 -52.089)" fill="#e50012"/>
  </g>
</svg>
