<svg xmlns="http://www.w3.org/2000/svg" width="100" height="36" viewBox="0 0 100 36"><defs><style>.a{fill:none;}.b{fill:#e50012;}.c{fill:#fff;}</style></defs><g transform="translate(0 6)"><rect class="a" width="100" height="36" transform="translate(0 -6)"/><path class="b" d="M32.212,66.556a7.485,7.485,0,0,0-14.824-.047A7.549,7.549,0,0,0,10.67,74a7.45,7.45,0,0,0,5.264,7.308,4.991,4.991,0,0,0,1.742.232l13.7-.048a7.493,7.493,0,0,0,.834-14.939Zm-.834,13.121a5.623,5.623,0,0,1-5.313-3.7l1.564-.814s-2.884-1.14-3.484-.827-1.32,3.329-1.32,3.329l1.618-.843A7.443,7.443,0,0,0,26.42,79.63H17.676a3.33,3.33,0,0,1-1.059-.107l-.109-.039A5.551,5.551,0,0,1,12.583,74a5.622,5.622,0,0,1,10.188-3.286l-1.6.881s2.91,1.072,3.5.745,1.241-3.359,1.241-3.359l-1.467.808a7.541,7.541,0,0,0-5.227-3.258,5.668,5.668,0,0,1,11.239.908l.021.887h.923a5.675,5.675,0,0,1-.028,11.35Z" transform="translate(-10.67 -59.086)"/><rect class="c" width="2.35" height="2.278" transform="translate(31.949 5.262)"/><rect class="c" width="2.35" height="13.204" transform="translate(31.949 9.207)"/><path class="c" d="M157.185,77.566a5.549,5.549,0,0,0-1.573,4.077v5.628a5.9,5.9,0,0,0,1.555,4.167,5.308,5.308,0,0,0,4.085,1.677H173.4v-2.35H161.224a2.892,2.892,0,0,1-2.356-1.114,3.931,3.931,0,0,1-.906-2.552V82.031a3.98,3.98,0,0,1,.906-2.588,2.894,2.894,0,0,1,2.356-1.114H173.4v-2.35H161.252A5.477,5.477,0,0,0,157.185,77.566Z" transform="translate(-117.479 -70.707)"/><path class="c" d="M250.973,76.08H243.5a5.41,5.41,0,0,0-5.527,5.539V93.2h2.259V86.887h14.008V93.2H256.5V81.863a5.79,5.79,0,0,0-1.582-4.075A5.159,5.159,0,0,0,250.973,76.08Zm3.268,8.547H240.232V81.615a3.268,3.268,0,0,1,3.267-3.276h7.473a3.269,3.269,0,0,1,3.268,3.276Z" transform="translate(-178.182 -70.781)"/><path class="c" d="M339.5,77.476a3.861,3.861,0,0,0-3.118-1.441h-7.8a5.339,5.339,0,0,0-4.116,1.81,6.161,6.161,0,0,0-1.65,4.3V93.183h2.367V81.841a3.332,3.332,0,0,1,1-2.433A3.262,3.262,0,0,1,328.59,78.4h7.35a2.051,2.051,0,0,1,1.611.669,2.427,2.427,0,0,1,.6,1.68c0,.748.208,2.558-.215,3.04a2.165,2.165,0,0,1-1.717.722h-8.663v2.367s9.663-.058,9.932-.062a2.669,2.669,0,0,0,2.374-1.171c.811-1.046.837-3.275.837-4.759A5.174,5.174,0,0,0,339.5,77.476Z" transform="translate(-240.697 -70.746)"/></g></svg>